<svg xmlns="http://www.w3.org/2000/svg" width="1080" height="1350" viewBox="0 0 1080 1350" role="img" aria-label="git-recap card for demo-repo">
  <defs>
    <style>
    @keyframes gr-nudge { 50% { transform: translate(5px, 5px); } }
    @keyframes gr-fade  { 50% { opacity: .45; } }
    @keyframes gr-slide { 50% { transform: translateX(-36px); } }
    .nudge { animation: gr-nudge 9s ease-in-out infinite; }
    .cell  { animation: gr-fade 6s ease-in-out infinite; }
    .strip { animation: gr-slide 24s linear infinite; }
    @media (prefers-reduced-motion: reduce) {
      .nudge, .cell, .strip { animation: none; }
    }</style>
    <clipPath id="stripClip"><rect x="0" y="0" width="1080" height="1350"/></clipPath>
    <pattern id="dots" width="14" height="14" patternUnits="userSpaceOnUse">
      <circle cx="3" cy="3" r="2.1" fill="#F3F0E6" opacity=".22"/>
    </pattern>
  </defs>
  <rect width="1080" height="1350" fill="#171A6B"/>
  
  <g clip-path="url(#stripClip)">
    <rect x="-40" y="0" width="1160" height="26" fill="none"/>
    <g class="strip">
      <rect x="-40" y="0" width="9" height="26" fill="#F3F0E6"/><rect x="-22" y="0" width="9" height="26" fill="#F3F0E6"/><rect x="-4" y="0" width="9" height="26" fill="#F3F0E6"/><rect x="14" y="0" width="9" height="26" fill="#F3F0E6"/><rect x="32" y="0" width="9" height="26" fill="#F3F0E6"/><rect x="50" y="0" width="9" height="26" fill="#F3F0E6"/><rect x="68" y="0" width="9" height="26" fill="#F3F0E6"/><rect x="86" y="0" width="9" height="26" fill="#F3F0E6"/><rect x="104" y="0" width="9" height="26" fill="#F3F0E6"/><rect x="122" y="0" width="9" height="26" fill="#F3F0E6"/><rect x="140" y="0" width="9" height="26" fill="#F3F0E6"/><rect x="158" y="0" width="9" height="26" fill="#F3F0E6"/><rect x="176" y="0" width="9" height="26" fill="#F3F0E6"/><rect x="194" y="0" width="9" height="26" fill="#F3F0E6"/><rect x="212" y="0" width="9" height="26" fill="#F3F0E6"/><rect x="230" y="0" width="9" height="26" fill="#F3F0E6"/><rect x="248" y="0" width="9" height="26" fill="#F3F0E6"/><rect x="266" y="0" width="9" height="26" fill="#F3F0E6"/><rect x="284" y="0" width="9" height="26" fill="#F3F0E6"/><rect x="302" y="0" width="9" height="26" fill="#F3F0E6"/><rect x="320" y="0" width="9" height="26" fill="#F3F0E6"/><rect x="338" y="0" width="9" height="26" fill="#F3F0E6"/><rect x="356" y="0" width="9" height="26" fill="#F3F0E6"/><rect x="374" y="0" width="9" height="26" fill="#F3F0E6"/><rect x="392" y="0" width="9" height="26" fill="#F3F0E6"/><rect x="410" y="0" width="9" height="26" fill="#F3F0E6"/><rect x="428" y="0" width="9" height="26" fill="#F3F0E6"/><rect x="446" y="0" width="9" height="26" fill="#F3F0E6"/><rect x="464" y="0" width="9" height="26" fill="#F3F0E6"/><rect x="482" y="0" width="9" height="26" fill="#F3F0E6"/><rect x="500" y="0" width="9" height="26" fill="#F3F0E6"/><rect x="518" y="0" width="9" height="26" fill="#F3F0E6"/><rect x="536" y="0" width="9" height="26" fill="#F3F0E6"/><rect x="554" y="0" width="9" height="26" fill="#F3F0E6"/><rect x="572" y="0" width="9" height="26" fill="#F3F0E6"/><rect x="590" y="0" width="9" height="26" fill="#F3F0E6"/><rect x="608" y="0" width="9" height="26" fill="#F3F0E6"/><rect x="626" y="0" width="9" height="26" fill="#F3F0E6"/><rect x="644" y="0" width="9" height="26" fill="#F3F0E6"/><rect x="662" y="0" width="9" height="26" fill="#F3F0E6"/><rect x="680" y="0" width="9" height="26" fill="#F3F0E6"/><rect x="698" y="0" width="9" height="26" fill="#F3F0E6"/><rect x="716" y="0" width="9" height="26" fill="#F3F0E6"/><rect x="734" y="0" width="9" height="26" fill="#F3F0E6"/><rect x="752" y="0" width="9" height="26" fill="#F3F0E6"/><rect x="770" y="0" width="9" height="26" fill="#F3F0E6"/><rect x="788" y="0" width="9" height="26" fill="#F3F0E6"/><rect x="806" y="0" width="9" height="26" fill="#F3F0E6"/><rect x="824" y="0" width="9" height="26" fill="#F3F0E6"/><rect x="842" y="0" width="9" height="26" fill="#F3F0E6"/><rect x="860" y="0" width="9" height="26" fill="#F3F0E6"/><rect x="878" y="0" width="9" height="26" fill="#F3F0E6"/><rect x="896" y="0" width="9" height="26" fill="#F3F0E6"/><rect x="914" y="0" width="9" height="26" fill="#F3F0E6"/><rect x="932" y="0" width="9" height="26" fill="#F3F0E6"/><rect x="950" y="0" width="9" height="26" fill="#F3F0E6"/><rect x="968" y="0" width="9" height="26" fill="#F3F0E6"/><rect x="986" y="0" width="9" height="26" fill="#F3F0E6"/><rect x="1004" y="0" width="9" height="26" fill="#F3F0E6"/><rect x="1022" y="0" width="9" height="26" fill="#F3F0E6"/><rect x="1040" y="0" width="9" height="26" fill="#F3F0E6"/><rect x="1058" y="0" width="9" height="26" fill="#F3F0E6"/><rect x="1076" y="0" width="9" height="26" fill="#F3F0E6"/><rect x="1094" y="0" width="9" height="26" fill="#F3F0E6"/><rect x="1112" y="0" width="9" height="26" fill="#F3F0E6"/><rect x="1130" y="0" width="9" height="26" fill="#F3F0E6"/><rect x="1148" y="0" width="9" height="26" fill="#F3F0E6"/><rect x="1166" y="0" width="9" height="26" fill="#F3F0E6"/>
    </g>
  </g>
  <rect x="0" y="1100" width="1080" height="250" fill="url(#dots)"/>

  <text x="72" y="106" font-family="ui-monospace,'SF Mono','JetBrains Mono','Fira Code','Cascadia Mono',Menlo,Consolas,monospace" font-size="26" font-weight="800" fill="#F3F0E6">git-recap</text>
  
  <g>
    <rect x="940.4" y="82" width="67.6" height="30" rx="15" fill="#F3F0E6"/>
    <text x="974.1999999999999" y="102" font-family="ui-monospace,'SF Mono','JetBrains Mono','Fira Code','Cascadia Mono',Menlo,Consolas,monospace" font-size="12.5" font-weight="800" fill="#171A6B" text-anchor="middle" letter-spacing="1.6">EPIC</text>
    <text x="974.1999999999999" y="130" font-family="ui-monospace,'SF Mono','JetBrains Mono','Fira Code','Cascadia Mono',Menlo,Consolas,monospace" font-size="12" font-weight="600" fill="#F3F0E6" text-anchor="middle" opacity="0.75">2.8× typical</text>
  </g>

  <text x="72" y="205" font-family="ui-monospace,'SF Mono','JetBrains Mono','Fira Code','Cascadia Mono',Menlo,Consolas,monospace" font-size="118" font-weight="600" fill="#F3F0E6">🦉</text>
  <text x="72" y="335" font-family="ui-monospace,'SF Mono','JetBrains Mono','Fira Code','Cascadia Mono',Menlo,Consolas,monospace" font-size="68" font-weight="800" fill="#F3F0E6">The Midnight</text><text x="72" y="398.92" font-family="ui-monospace,'SF Mono','JetBrains Mono','Fira Code','Cascadia Mono',Menlo,Consolas,monospace" font-size="68" font-weight="800" fill="#F3F0E6">Architect</text>
  <text x="72" y="502.84" font-family="ui-monospace,'SF Mono','JetBrains Mono','Fira Code','Cascadia Mono',Menlo,Consolas,monospace" font-size="26" font-weight="500" fill="#F3F0E6" opacity="0.78">42% of your commits shipped after 10pm. The</text><text x="72" y="538.8399999999999" font-family="ui-monospace,'SF Mono','JetBrains Mono','Fira Code','Cascadia Mono',Menlo,Consolas,monospace" font-size="26" font-weight="500" fill="#F3F0E6" opacity="0.78">best ideas don't sleep — and apparently,</text><text x="72" y="574.8399999999999" font-family="ui-monospace,'SF Mono','JetBrains Mono','Fira Code','Cascadia Mono',Menlo,Consolas,monospace" font-size="26" font-weight="500" fill="#F3F0E6" opacity="0.78">neither do you.</text>

  
  <g>
    <text class="nudge" x="79" y="887" font-family="ui-monospace,'SF Mono','JetBrains Mono','Fira Code','Cascadia Mono',Menlo,Consolas,monospace" font-size="210" font-weight="800"
      letter-spacing="2.1" fill="#F3F0E6" opacity=".25">970</text>
    <text x="72" y="880" font-family="ui-monospace,'SF Mono','JetBrains Mono','Fira Code','Cascadia Mono',Menlo,Consolas,monospace" font-size="210" font-weight="800"
      letter-spacing="2.1" fill="#FFD166">970</text>
  </g>
  <text x="76" y="922" font-family="ui-monospace,'SF Mono','JetBrains Mono','Fira Code','Cascadia Mono',Menlo,Consolas,monospace" font-size="20" font-weight="800" fill="#F3F0E6" letter-spacing="6" opacity="0.7">COMMITS</text>
  <text x="1008" y="880" font-family="ui-monospace,'SF Mono','JetBrains Mono','Fira Code','Cascadia Mono',Menlo,Consolas,monospace" font-size="78" font-weight="800" fill="#F3F0E6" text-anchor="end">441</text>
  <text x="1008" y="922" font-family="ui-monospace,'SF Mono','JetBrains Mono','Fira Code','Cascadia Mono',Menlo,Consolas,monospace" font-size="18" font-weight="800" fill="#F3F0E6" text-anchor="end" letter-spacing="4" opacity="0.7">ACTIVE DAYS</text>

  <rect x="72" y="982" width="14" height="14" rx="1.5" fill="#F3F0E6" opacity="0.7"/><rect x="72" y="1000" width="14" height="14" rx="1.5" fill="#F3F0E6" opacity="0.4"/><rect x="72" y="1018" width="14" height="14" rx="1.5" fill="#F3F0E6" opacity="0.7"/><rect x="72" y="1036" width="14" height="14" rx="1.5" fill="#F3F0E6" opacity="0.4"/><rect x="72" y="1054" width="14" height="14" rx="1.5" fill="#F3F0E6" opacity="0.7"/><rect x="72" y="1072" width="14" height="14" rx="1.5" fill="#F3F0E6" opacity="0.7"/><rect x="72" y="1090" width="14" height="14" rx="1.5" fill="#F3F0E6" opacity="0.7"/><rect x="90" y="982" width="14" height="14" rx="1.5" fill="#F3F0E6" opacity="0.7"/><rect x="90" y="1000" width="14" height="14" rx="1.5" fill="#F3F0E6" opacity="0.14"/><rect x="90" y="1018" width="14" height="14" rx="1.5" fill="#F3F0E6" opacity="0.14"/><rect x="90" y="1036" width="14" height="14" rx="1.5" fill="#F3F0E6" opacity="0.14"/><rect x="90" y="1054" width="14" height="14" rx="1.5" fill="#F3F0E6" opacity="0.14"/><rect x="90" y="1072" width="14" height="14" rx="1.5" fill="#F3F0E6" opacity="0.4"/><rect x="90" y="1090" width="14" height="14" rx="1.5" fill="#F3F0E6" opacity="0.14"/><rect x="108" y="982" width="14" height="14" rx="1.5" fill="#F3F0E6" opacity="0.7"/><rect x="108" y="1000" width="14" height="14" rx="1.5" fill="#F3F0E6" opacity="0.14"/><rect x="108" y="1018" width="14" height="14" rx="1.5" fill="#F3F0E6" opacity="0.14"/><rect x="108" y="1036" width="14" height="14" rx="1.5" fill="#F3F0E6" opacity="0.14"/><rect x="108" y="1054" width="14" height="14" rx="1.5" fill="#F3F0E6" opacity="0.14"/><rect x="108" y="1072" width="14" height="14" rx="1.5" fill="#F3F0E6" opacity="0.7"/><rect x="108" y="1090" width="14" height="14" rx="1.5" fill="#F3F0E6" opacity="0.7"/><rect x="126" y="982" width="14" height="14" rx="1.5" fill="#F3F0E6" opacity="0.14"/><rect x="126" y="1000" width="14" height="14" rx="1.5" fill="#F3F0E6" opacity="0.4"/><rect x="126" y="1018" width="14" height="14" rx="1.5" fill="#F3F0E6" opacity="0.14"/><rect x="126" y="1036" width="14" height="14" rx="1.5" fill="#F3F0E6" opacity="0.14"/><rect x="126" y="1054" width="14" height="14" rx="1.5" fill="#F3F0E6" opacity="0.4"/><rect x="126" y="1072" width="14" height="14" rx="1.5" fill="#F3F0E6" opacity="0.7"/><rect x="126" y="1090" width="14" height="14" rx="1.5" fill="#F3F0E6" opacity="0.7"/><rect x="144" y="982" width="14" height="14" rx="1.5" fill="#F3F0E6" opacity="0.7"/><rect x="144" y="1000" width="14" height="14" rx="1.5" fill="#F3F0E6" opacity="0.14"/><rect class="cell" style="animation-delay:3.2s" x="144" y="1018" width="14" height="14" rx="1.5" fill="#FFD166" opacity="1"/><rect x="144" y="1036" width="14" height="14" rx="1.5" fill="#F3F0E6" opacity="0.7"/><rect x="144" y="1054" width="14" height="14" rx="1.5" fill="#F3F0E6" opacity="0.7"/><rect x="144" y="1072" width="14" height="14" rx="1.5" fill="#F3F0E6" opacity="0.4"/><rect x="144" y="1090" width="14" height="14" rx="1.5" fill="#F3F0E6" opacity="0.4"/><rect x="162" y="982" width="14" height="14" rx="1.5" fill="#F3F0E6" opacity="0.14"/><rect x="162" y="1000" width="14" height="14" rx="1.5" fill="#F3F0E6" opacity="0.14"/><rect x="162" y="1018" width="14" height="14" rx="1.5" fill="#F3F0E6" opacity="0.14"/><rect x="162" y="1036" width="14" height="14" rx="1.5" fill="#F3F0E6" opacity="0.7"/><rect x="162" y="1054" width="14" height="14" rx="1.5" fill="#F3F0E6" opacity="0.7"/><rect x="162" y="1072" width="14" height="14" rx="1.5" fill="#F3F0E6" opacity="0.7"/><rect x="162" y="1090" width="14" height="14" rx="1.5" fill="#F3F0E6" opacity="0.14"/><rect x="180" y="982" width="14" height="14" rx="1.5" fill="#F3F0E6" opacity="0.7"/><rect x="180" y="1000" width="14" height="14" rx="1.5" fill="#F3F0E6" opacity="0.14"/><rect x="180" y="1018" width="14" height="14" rx="1.5" fill="#F3F0E6" opacity="0.14"/><rect x="180" y="1036" width="14" height="14" rx="1.5" fill="#F3F0E6" opacity="0.4"/><rect x="180" y="1054" width="14" height="14" rx="1.5" fill="#F3F0E6" opacity="0.7"/><rect x="180" y="1072" width="14" height="14" rx="1.5" fill="#F3F0E6" opacity="0.7"/><rect x="180" y="1090" width="14" height="14" rx="1.5" fill="#F3F0E6" opacity="0.14"/><rect x="198" y="982" width="14" height="14" rx="1.5" fill="#F3F0E6" opacity="0.7"/><rect x="198" y="1000" width="14" height="14" rx="1.5" fill="#F3F0E6" opacity="0.14"/><rect x="198" y="1018" width="14" height="14" rx="1.5" fill="#F3F0E6" opacity="0.14"/><rect x="198" y="1036" width="14" height="14" rx="1.5" fill="#F3F0E6" opacity="0.4"/><rect x="198" y="1054" width="14" height="14" rx="1.5" fill="#F3F0E6" opacity="0.14"/><rect x="198" y="1072" width="14" height="14" rx="1.5" fill="#F3F0E6" opacity="0.14"/><rect x="198" y="1090" width="14" height="14" rx="1.5" fill="#F3F0E6" opacity="0.7"/><rect x="216" y="982" width="14" height="14" rx="1.5" fill="#F3F0E6" opacity="0.14"/><rect x="216" y="1000" width="14" height="14" rx="1.5" fill="#F3F0E6" opacity="0.14"/><rect x="216" y="1018" width="14" height="14" rx="1.5" fill="#F3F0E6" opacity="0.14"/><rect x="216" y="1036" width="14" height="14" rx="1.5" fill="#F3F0E6" opacity="0.7"/><rect x="216" y="1054" width="14" height="14" rx="1.5" fill="#F3F0E6" opacity="0.7"/><rect x="216" y="1072" width="14" height="14" rx="1.5" fill="#F3F0E6" opacity="0.7"/><rect x="216" y="1090" width="14" height="14" rx="1.5" fill="#F3F0E6" opacity="0.4"/><rect x="234" y="982" width="14" height="14" rx="1.5" fill="#F3F0E6" opacity="0.4"/><rect x="234" y="1000" width="14" height="14" rx="1.5" fill="#F3F0E6" opacity="0.14"/><rect x="234" y="1018" width="14" height="14" rx="1.5" fill="#F3F0E6" opacity="0.14"/><rect x="234" y="1036" width="14" height="14" rx="1.5" fill="#F3F0E6" opacity="0.7"/><rect x="234" y="1054" width="14" height="14" rx="1.5" fill="#F3F0E6" opacity="0.7"/><rect x="234" y="1072" width="14" height="14" rx="1.5" fill="#F3F0E6" opacity="0.4"/><rect x="234" y="1090" width="14" height="14" rx="1.5" fill="#F3F0E6" opacity="0.7"/><rect x="252" y="982" width="14" height="14" rx="1.5" fill="#F3F0E6" opacity="0.14"/><rect x="252" y="1000" width="14" height="14" rx="1.5" fill="#F3F0E6" opacity="0.7"/><rect x="252" y="1018" width="14" height="14" rx="1.5" fill="#F3F0E6" opacity="0.7"/><rect x="252" y="1036" width="14" height="14" rx="1.5" fill="#F3F0E6" opacity="0.7"/><rect x="252" y="1054" width="14" height="14" rx="1.5" fill="#F3F0E6" opacity="0.4"/><rect x="252" y="1072" width="14" height="14" rx="1.5" fill="#F3F0E6" opacity="0.14"/><rect x="252" y="1090" width="14" height="14" rx="1.5" fill="#F3F0E6" opacity="0.4"/><rect x="270" y="982" width="14" height="14" rx="1.5" fill="#F3F0E6" opacity="0.7"/><rect x="270" y="1000" width="14" height="14" rx="1.5" fill="#F3F0E6" opacity="0.7"/><rect x="270" y="1018" width="14" height="14" rx="1.5" fill="#F3F0E6" opacity="0.14"/><rect x="270" y="1036" width="14" height="14" rx="1.5" fill="#F3F0E6" opacity="0.7"/><rect x="270" y="1054" width="14" height="14" rx="1.5" fill="#F3F0E6" opacity="0.14"/><rect x="270" y="1072" width="14" height="14" rx="1.5" fill="#F3F0E6" opacity="0.7"/><rect x="270" y="1090" width="14" height="14" rx="1.5" fill="#F3F0E6" opacity="0.7"/><rect x="288" y="982" width="14" height="14" rx="1.5" fill="#F3F0E6" opacity="0.4"/><rect x="288" y="1000" width="14" height="14" rx="1.5" fill="#F3F0E6" opacity="0.14"/><rect x="288" y="1018" width="14" height="14" rx="1.5" fill="#F3F0E6" opacity="0.7"/><rect x="288" y="1036" width="14" height="14" rx="1.5" fill="#F3F0E6" opacity="0.14"/><rect x="288" y="1054" width="14" height="14" rx="1.5" fill="#F3F0E6" opacity="0.7"/><rect x="288" y="1072" width="14" height="14" rx="1.5" fill="#F3F0E6" opacity="0.7"/><rect x="288" y="1090" width="14" height="14" rx="1.5" fill="#F3F0E6" opacity="0.14"/><rect class="cell" style="animation-delay:1.2s" x="306" y="982" width="14" height="14" rx="1.5" fill="#FFD166" opacity="1"/><rect x="306" y="1000" width="14" height="14" rx="1.5" fill="#F3F0E6" opacity="0.14"/><rect x="306" y="1018" width="14" height="14" rx="1.5" fill="#F3F0E6" opacity="0.14"/><rect x="306" y="1036" width="14" height="14" rx="1.5" fill="#F3F0E6" opacity="0.14"/><rect x="306" y="1054" width="14" height="14" rx="1.5" fill="#F3F0E6" opacity="0.4"/><rect x="306" y="1072" width="14" height="14" rx="1.5" fill="#F3F0E6" opacity="0.4"/><rect x="306" y="1090" width="14" height="14" rx="1.5" fill="#F3F0E6" opacity="0.4"/><rect x="324" y="982" width="14" height="14" rx="1.5" fill="#F3F0E6" opacity="0.7"/><rect x="324" y="1000" width="14" height="14" rx="1.5" fill="#F3F0E6" opacity="0.7"/><rect x="324" y="1018" width="14" height="14" rx="1.5" fill="#F3F0E6" opacity="0.7"/><rect x="324" y="1036" width="14" height="14" rx="1.5" fill="#F3F0E6" opacity="0.7"/><rect x="324" y="1054" width="14" height="14" rx="1.5" fill="#F3F0E6" opacity="0.7"/><rect x="324" y="1072" width="14" height="14" rx="1.5" fill="#F3F0E6" opacity="0.14"/><rect x="324" y="1090" width="14" height="14" rx="1.5" fill="#F3F0E6" opacity="0.7"/><rect x="342" y="982" width="14" height="14" rx="1.5" fill="#F3F0E6" opacity="0.14"/><rect x="342" y="1000" width="14" height="14" rx="1.5" fill="#F3F0E6" opacity="0.14"/><rect x="342" y="1018" width="14" height="14" rx="1.5" fill="#F3F0E6" opacity="0.7"/><rect x="342" y="1036" width="14" height="14" rx="1.5" fill="#F3F0E6" opacity="0.7"/><rect x="342" y="1054" width="14" height="14" rx="1.5" fill="#F3F0E6" opacity="0.4"/><rect x="342" y="1072" width="14" height="14" rx="1.5" fill="#F3F0E6" opacity="0.7"/><rect x="342" y="1090" width="14" height="14" rx="1.5" fill="#F3F0E6" opacity="0.14"/><rect x="360" y="982" width="14" height="14" rx="1.5" fill="#F3F0E6" opacity="0.4"/><rect x="360" y="1000" width="14" height="14" rx="1.5" fill="#F3F0E6" opacity="0.14"/><rect x="360" y="1018" width="14" height="14" rx="1.5" fill="#F3F0E6" opacity="0.14"/><rect x="360" y="1036" width="14" height="14" rx="1.5" fill="#F3F0E6" opacity="0.7"/><rect x="360" y="1054" width="14" height="14" rx="1.5" fill="#F3F0E6" opacity="0.14"/><rect x="360" y="1072" width="14" height="14" rx="1.5" fill="#F3F0E6" opacity="0.7"/><rect x="360" y="1090" width="14" height="14" rx="1.5" fill="#F3F0E6" opacity="0.7"/><rect x="378" y="982" width="14" height="14" rx="1.5" fill="#F3F0E6" opacity="0.4"/><rect x="378" y="1000" width="14" height="14" rx="1.5" fill="#F3F0E6" opacity="0.14"/><rect x="378" y="1018" width="14" height="14" rx="1.5" fill="#F3F0E6" opacity="0.14"/><rect x="378" y="1036" width="14" height="14" rx="1.5" fill="#F3F0E6" opacity="0.14"/><rect x="378" y="1054" width="14" height="14" rx="1.5" fill="#F3F0E6" opacity="0.7"/><rect x="378" y="1072" width="14" height="14" rx="1.5" fill="#F3F0E6" opacity="0.14"/><rect x="378" y="1090" width="14" height="14" rx="1.5" fill="#F3F0E6" opacity="0.14"/><rect x="396" y="982" width="14" height="14" rx="1.5" fill="#F3F0E6" opacity="0.7"/><rect x="396" y="1000" width="14" height="14" rx="1.5" fill="#F3F0E6" opacity="0.14"/><rect x="396" y="1018" width="14" height="14" rx="1.5" fill="#F3F0E6" opacity="0.7"/><rect x="396" y="1036" width="14" height="14" rx="1.5" fill="#F3F0E6" opacity="0.14"/><rect x="396" y="1054" width="14" height="14" rx="1.5" fill="#F3F0E6" opacity="0.14"/><rect class="cell" style="animation-delay:4.0s" x="396" y="1072" width="14" height="14" rx="1.5" fill="#FFD166" opacity="1"/><rect class="cell" style="animation-delay:0.0s" x="396" y="1090" width="14" height="14" rx="1.5" fill="#FFD166" opacity="1"/><rect x="414" y="982" width="14" height="14" rx="1.5" fill="#F3F0E6" opacity="0.14"/><rect x="414" y="1000" width="14" height="14" rx="1.5" fill="#F3F0E6" opacity="0.4"/><rect x="414" y="1018" width="14" height="14" rx="1.5" fill="#F3F0E6" opacity="0.7"/><rect x="414" y="1036" width="14" height="14" rx="1.5" fill="#F3F0E6" opacity="0.4"/><rect x="414" y="1054" width="14" height="14" rx="1.5" fill="#F3F0E6" opacity="0.7"/><rect x="414" y="1072" width="14" height="14" rx="1.5" fill="#F3F0E6" opacity="0.14"/><rect x="414" y="1090" width="14" height="14" rx="1.5" fill="#F3F0E6" opacity="0.14"/><rect x="432" y="982" width="14" height="14" rx="1.5" fill="#F3F0E6" opacity="0.14"/><rect x="432" y="1000" width="14" height="14" rx="1.5" fill="#F3F0E6" opacity="0.14"/><rect x="432" y="1018" width="14" height="14" rx="1.5" fill="#F3F0E6" opacity="0.4"/><rect x="432" y="1036" width="14" height="14" rx="1.5" fill="#F3F0E6" opacity="0.7"/><rect x="432" y="1054" width="14" height="14" rx="1.5" fill="#F3F0E6" opacity="0.4"/><rect x="432" y="1072" width="14" height="14" rx="1.5" fill="#F3F0E6" opacity="0.7"/><rect x="432" y="1090" width="14" height="14" rx="1.5" fill="#F3F0E6" opacity="0.7"/><rect x="450" y="982" width="14" height="14" rx="1.5" fill="#F3F0E6" opacity="0.4"/><rect x="450" y="1000" width="14" height="14" rx="1.5" fill="#F3F0E6" opacity="0.14"/><rect x="450" y="1018" width="14" height="14" rx="1.5" fill="#F3F0E6" opacity="0.14"/><rect x="450" y="1036" width="14" height="14" rx="1.5" fill="#F3F0E6" opacity="0.7"/><rect x="450" y="1054" width="14" height="14" rx="1.5" fill="#F3F0E6" opacity="0.7"/><rect x="450" y="1072" width="14" height="14" rx="1.5" fill="#F3F0E6" opacity="0.4"/><rect x="450" y="1090" width="14" height="14" rx="1.5" fill="#F3F0E6" opacity="0.4"/><rect x="468" y="982" width="14" height="14" rx="1.5" fill="#F3F0E6" opacity="0.7"/><rect x="468" y="1000" width="14" height="14" rx="1.5" fill="#F3F0E6" opacity="0.14"/><rect class="cell" style="animation-delay:0.8s" x="468" y="1018" width="14" height="14" rx="1.5" fill="#FFD166" opacity="1"/><rect x="468" y="1036" width="14" height="14" rx="1.5" fill="#F3F0E6" opacity="0.14"/><rect x="468" y="1054" width="14" height="14" rx="1.5" fill="#F3F0E6" opacity="0.7"/><rect x="468" y="1072" width="14" height="14" rx="1.5" fill="#F3F0E6" opacity="0.14"/><rect x="468" y="1090" width="14" height="14" rx="1.5" fill="#F3F0E6" opacity="0.7"/><rect x="486" y="982" width="14" height="14" rx="1.5" fill="#F3F0E6" opacity="0.14"/><rect x="486" y="1000" width="14" height="14" rx="1.5" fill="#F3F0E6" opacity="0.14"/><rect x="486" y="1018" width="14" height="14" rx="1.5" fill="#F3F0E6" opacity="0.14"/><rect x="486" y="1036" width="14" height="14" rx="1.5" fill="#F3F0E6" opacity="0.4"/><rect x="486" y="1054" width="14" height="14" rx="1.5" fill="#F3F0E6" opacity="0.7"/><rect x="486" y="1072" width="14" height="14" rx="1.5" fill="#F3F0E6" opacity="0.14"/><rect x="486" y="1090" width="14" height="14" rx="1.5" fill="#F3F0E6" opacity="0.14"/><rect x="504" y="982" width="14" height="14" rx="1.5" fill="#F3F0E6" opacity="0.14"/><rect x="504" y="1000" width="14" height="14" rx="1.5" fill="#F3F0E6" opacity="0.14"/><rect x="504" y="1018" width="14" height="14" rx="1.5" fill="#F3F0E6" opacity="0.4"/><rect x="504" y="1036" width="14" height="14" rx="1.5" fill="#F3F0E6" opacity="0.14"/><rect x="504" y="1054" width="14" height="14" rx="1.5" fill="#F3F0E6" opacity="0.14"/><rect x="504" y="1072" width="14" height="14" rx="1.5" fill="#F3F0E6" opacity="0.14"/><rect x="504" y="1090" width="14" height="14" rx="1.5" fill="#F3F0E6" opacity="0.14"/><rect x="522" y="982" width="14" height="14" rx="1.5" fill="#F3F0E6" opacity="0.14"/><rect x="522" y="1000" width="14" height="14" rx="1.5" fill="#F3F0E6" opacity="0.14"/><rect x="522" y="1018" width="14" height="14" rx="1.5" fill="#F3F0E6" opacity="0.7"/><rect x="522" y="1036" width="14" height="14" rx="1.5" fill="#F3F0E6" opacity="0.14"/><rect x="522" y="1054" width="14" height="14" rx="1.5" fill="#F3F0E6" opacity="0.7"/><rect x="522" y="1072" width="14" height="14" rx="1.5" fill="#F3F0E6" opacity="0.7"/><rect x="522" y="1090" width="14" height="14" rx="1.5" fill="#F3F0E6" opacity="0.7"/><rect x="540" y="982" width="14" height="14" rx="1.5" fill="#F3F0E6" opacity="0.4"/><rect x="540" y="1000" width="14" height="14" rx="1.5" fill="#F3F0E6" opacity="0.14"/><rect x="540" y="1018" width="14" height="14" rx="1.5" fill="#F3F0E6" opacity="0.14"/><rect class="cell" style="animation-delay:3.6s" x="540" y="1036" width="14" height="14" rx="1.5" fill="#FFD166" opacity="1"/><rect x="540" y="1054" width="14" height="14" rx="1.5" fill="#F3F0E6" opacity="0.4"/><rect class="cell" style="animation-delay:0.0s" x="540" y="1072" width="14" height="14" rx="1.5" fill="#FFD166" opacity="1"/><rect x="540" y="1090" width="14" height="14" rx="1.5" fill="#F3F0E6" opacity="0.7"/><rect x="558" y="982" width="14" height="14" rx="1.5" fill="#F3F0E6" opacity="0.4"/><rect x="558" y="1000" width="14" height="14" rx="1.5" fill="#F3F0E6" opacity="0.14"/><rect x="558" y="1018" width="14" height="14" rx="1.5" fill="#F3F0E6" opacity="0.14"/><rect x="558" y="1036" width="14" height="14" rx="1.5" fill="#F3F0E6" opacity="0.14"/><rect x="558" y="1054" width="14" height="14" rx="1.5" fill="#F3F0E6" opacity="0.7"/><rect x="558" y="1072" width="14" height="14" rx="1.5" fill="#F3F0E6" opacity="0.7"/><rect x="558" y="1090" width="14" height="14" rx="1.5" fill="#F3F0E6" opacity="0.4"/><rect x="576" y="982" width="14" height="14" rx="1.5" fill="#F3F0E6" opacity="0.4"/><rect x="576" y="1000" width="14" height="14" rx="1.5" fill="#F3F0E6" opacity="0.4"/><rect x="576" y="1018" width="14" height="14" rx="1.5" fill="#F3F0E6" opacity="0.7"/><rect x="576" y="1036" width="14" height="14" rx="1.5" fill="#F3F0E6" opacity="0.7"/><rect x="576" y="1054" width="14" height="14" rx="1.5" fill="#F3F0E6" opacity="0.7"/><rect class="cell" style="animation-delay:1.2s" x="576" y="1072" width="14" height="14" rx="1.5" fill="#FFD166" opacity="1"/><rect x="576" y="1090" width="14" height="14" rx="1.5" fill="#F3F0E6" opacity="0.14"/><rect x="594" y="982" width="14" height="14" rx="1.5" fill="#F3F0E6" opacity="0.4"/><rect x="594" y="1000" width="14" height="14" rx="1.5" fill="#F3F0E6" opacity="0.14"/><rect x="594" y="1018" width="14" height="14" rx="1.5" fill="#F3F0E6" opacity="0.7"/><rect x="594" y="1036" width="14" height="14" rx="1.5" fill="#F3F0E6" opacity="0.14"/><rect x="594" y="1054" width="14" height="14" rx="1.5" fill="#F3F0E6" opacity="0.7"/><rect x="594" y="1072" width="14" height="14" rx="1.5" fill="#F3F0E6" opacity="0.14"/><rect x="594" y="1090" width="14" height="14" rx="1.5" fill="#F3F0E6" opacity="0.14"/><rect x="612" y="982" width="14" height="14" rx="1.5" fill="#F3F0E6" opacity="0.7"/><rect x="612" y="1000" width="14" height="14" rx="1.5" fill="#F3F0E6" opacity="0.14"/><rect x="612" y="1018" width="14" height="14" rx="1.5" fill="#F3F0E6" opacity="0.7"/><rect x="612" y="1036" width="14" height="14" rx="1.5" fill="#F3F0E6" opacity="0.4"/><rect x="612" y="1054" width="14" height="14" rx="1.5" fill="#F3F0E6" opacity="0.14"/><rect x="612" y="1072" width="14" height="14" rx="1.5" fill="#F3F0E6" opacity="0.7"/><rect x="612" y="1090" width="14" height="14" rx="1.5" fill="#F3F0E6" opacity="0.4"/><rect x="630" y="982" width="14" height="14" rx="1.5" fill="#F3F0E6" opacity="0.7"/><rect x="630" y="1000" width="14" height="14" rx="1.5" fill="#F3F0E6" opacity="0.7"/><rect x="630" y="1018" width="14" height="14" rx="1.5" fill="#F3F0E6" opacity="0.14"/><rect x="630" y="1036" width="14" height="14" rx="1.5" fill="#F3F0E6" opacity="0.14"/><rect x="630" y="1054" width="14" height="14" rx="1.5" fill="#F3F0E6" opacity="0.4"/><rect x="630" y="1072" width="14" height="14" rx="1.5" fill="#F3F0E6" opacity="0.14"/><rect x="630" y="1090" width="14" height="14" rx="1.5" fill="#F3F0E6" opacity="0.14"/><rect class="cell" style="animation-delay:1.6s" x="648" y="982" width="14" height="14" rx="1.5" fill="#FFD166" opacity="1"/><rect x="648" y="1000" width="14" height="14" rx="1.5" fill="#F3F0E6" opacity="0.14"/><rect x="648" y="1018" width="14" height="14" rx="1.5" fill="#F3F0E6" opacity="0.14"/><rect class="cell" style="animation-delay:2.8s" x="648" y="1036" width="14" height="14" rx="1.5" fill="#FFD166" opacity="1"/><rect x="648" y="1054" width="14" height="14" rx="1.5" fill="#F3F0E6" opacity="0.14"/><rect x="648" y="1072" width="14" height="14" rx="1.5" fill="#F3F0E6" opacity="0.4"/><rect x="648" y="1090" width="14" height="14" rx="1.5" fill="#F3F0E6" opacity="0.7"/><rect x="666" y="982" width="14" height="14" rx="1.5" fill="#F3F0E6" opacity="0.7"/><rect x="666" y="1000" width="14" height="14" rx="1.5" fill="#F3F0E6" opacity="0.14"/><rect x="666" y="1018" width="14" height="14" rx="1.5" fill="#F3F0E6" opacity="0.4"/><rect x="666" y="1036" width="14" height="14" rx="1.5" fill="#F3F0E6" opacity="0.4"/><rect x="666" y="1054" width="14" height="14" rx="1.5" fill="#F3F0E6" opacity="0.4"/><rect x="666" y="1072" width="14" height="14" rx="1.5" fill="#F3F0E6" opacity="0.7"/><rect x="666" y="1090" width="14" height="14" rx="1.5" fill="#F3F0E6" opacity="0.7"/><rect x="684" y="982" width="14" height="14" rx="1.5" fill="#F3F0E6" opacity="0.7"/><rect x="684" y="1000" width="14" height="14" rx="1.5" fill="#F3F0E6" opacity="0.4"/><rect x="684" y="1018" width="14" height="14" rx="1.5" fill="#F3F0E6" opacity="0.14"/><rect x="684" y="1036" width="14" height="14" rx="1.5" fill="#F3F0E6" opacity="0.7"/><rect x="684" y="1054" width="14" height="14" rx="1.5" fill="#F3F0E6" opacity="0.7"/><rect x="684" y="1072" width="14" height="14" rx="1.5" fill="#F3F0E6" opacity="0.7"/><rect x="684" y="1090" width="14" height="14" rx="1.5" fill="#F3F0E6" opacity="0.4"/><rect x="702" y="982" width="14" height="14" rx="1.5" fill="#F3F0E6" opacity="0.7"/><rect x="702" y="1000" width="14" height="14" rx="1.5" fill="#F3F0E6" opacity="0.14"/><rect x="702" y="1018" width="14" height="14" rx="1.5" fill="#F3F0E6" opacity="0.4"/><rect x="702" y="1036" width="14" height="14" rx="1.5" fill="#F3F0E6" opacity="0.14"/><rect x="702" y="1054" width="14" height="14" rx="1.5" fill="#F3F0E6" opacity="0.14"/><rect x="702" y="1072" width="14" height="14" rx="1.5" fill="#F3F0E6" opacity="0.7"/><rect x="702" y="1090" width="14" height="14" rx="1.5" fill="#F3F0E6" opacity="0.7"/><rect x="720" y="982" width="14" height="14" rx="1.5" fill="#F3F0E6" opacity="0.4"/><rect x="720" y="1000" width="14" height="14" rx="1.5" fill="#F3F0E6" opacity="0.7"/><rect x="720" y="1018" width="14" height="14" rx="1.5" fill="#F3F0E6" opacity="0.14"/><rect class="cell" style="animation-delay:0.8s" x="720" y="1036" width="14" height="14" rx="1.5" fill="#FFD166" opacity="1"/><rect x="720" y="1054" width="14" height="14" rx="1.5" fill="#F3F0E6" opacity="0.4"/><rect x="720" y="1072" width="14" height="14" rx="1.5" fill="#F3F0E6" opacity="0.14"/><rect x="720" y="1090" width="14" height="14" rx="1.5" fill="#F3F0E6" opacity="0.7"/><rect x="738" y="982" width="14" height="14" rx="1.5" fill="#F3F0E6" opacity="0.4"/><rect x="738" y="1000" width="14" height="14" rx="1.5" fill="#F3F0E6" opacity="0.4"/><rect x="738" y="1018" width="14" height="14" rx="1.5" fill="#F3F0E6" opacity="0.14"/><rect x="738" y="1036" width="14" height="14" rx="1.5" fill="#F3F0E6" opacity="0.4"/><rect x="738" y="1054" width="14" height="14" rx="1.5" fill="#F3F0E6" opacity="0.7"/><rect x="738" y="1072" width="14" height="14" rx="1.5" fill="#F3F0E6" opacity="0.4"/><rect x="738" y="1090" width="14" height="14" rx="1.5" fill="#F3F0E6" opacity="0.4"/><rect x="756" y="982" width="14" height="14" rx="1.5" fill="#F3F0E6" opacity="0.7"/><rect x="756" y="1000" width="14" height="14" rx="1.5" fill="#F3F0E6" opacity="0.4"/><rect x="756" y="1018" width="14" height="14" rx="1.5" fill="#F3F0E6" opacity="0.14"/><rect x="756" y="1036" width="14" height="14" rx="1.5" fill="#F3F0E6" opacity="0.7"/><rect x="756" y="1054" width="14" height="14" rx="1.5" fill="#F3F0E6" opacity="0.7"/><rect x="756" y="1072" width="14" height="14" rx="1.5" fill="#F3F0E6" opacity="0.4"/><rect x="756" y="1090" width="14" height="14" rx="1.5" fill="#F3F0E6" opacity="0.14"/><rect x="774" y="982" width="14" height="14" rx="1.5" fill="#F3F0E6" opacity="0.4"/><rect x="774" y="1000" width="14" height="14" rx="1.5" fill="#F3F0E6" opacity="0.7"/><rect x="774" y="1018" width="14" height="14" rx="1.5" fill="#F3F0E6" opacity="0.14"/><rect x="774" y="1036" width="14" height="14" rx="1.5" fill="#F3F0E6" opacity="0.7"/><rect x="774" y="1054" width="14" height="14" rx="1.5" fill="#F3F0E6" opacity="0.4"/><rect x="774" y="1072" width="14" height="14" rx="1.5" fill="#F3F0E6" opacity="0.14"/><rect x="774" y="1090" width="14" height="14" rx="1.5" fill="#F3F0E6" opacity="0.7"/><rect x="792" y="982" width="14" height="14" rx="1.5" fill="#F3F0E6" opacity="0.4"/><rect x="792" y="1000" width="14" height="14" rx="1.5" fill="#F3F0E6" opacity="0.14"/><rect x="792" y="1018" width="14" height="14" rx="1.5" fill="#F3F0E6" opacity="0.7"/><rect x="792" y="1036" width="14" height="14" rx="1.5" fill="#F3F0E6" opacity="0.7"/><rect x="792" y="1054" width="14" height="14" rx="1.5" fill="#F3F0E6" opacity="0.14"/><rect class="cell" style="animation-delay:4.0s" x="792" y="1072" width="14" height="14" rx="1.5" fill="#FFD166" opacity="1"/><rect x="792" y="1090" width="14" height="14" rx="1.5" fill="#F3F0E6" opacity="0.14"/><rect x="810" y="982" width="14" height="14" rx="1.5" fill="#F3F0E6" opacity="0.4"/><rect x="810" y="1000" width="14" height="14" rx="1.5" fill="#F3F0E6" opacity="0.14"/><rect x="810" y="1018" width="14" height="14" rx="1.5" fill="#F3F0E6" opacity="0.7"/><rect x="810" y="1036" width="14" height="14" rx="1.5" fill="#F3F0E6" opacity="0.4"/><rect x="810" y="1054" width="14" height="14" rx="1.5" fill="#F3F0E6" opacity="0.4"/><rect x="810" y="1072" width="14" height="14" rx="1.5" fill="#F3F0E6" opacity="0.7"/><rect x="810" y="1090" width="14" height="14" rx="1.5" fill="#F3F0E6" opacity="0.4"/><rect x="828" y="982" width="14" height="14" rx="1.5" fill="#F3F0E6" opacity="0.7"/><rect x="828" y="1000" width="14" height="14" rx="1.5" fill="#F3F0E6" opacity="0.14"/><rect x="828" y="1018" width="14" height="14" rx="1.5" fill="#F3F0E6" opacity="0.14"/><rect x="828" y="1036" width="14" height="14" rx="1.5" fill="#F3F0E6" opacity="0.14"/><rect class="cell" style="animation-delay:0.4s" x="828" y="1054" width="14" height="14" rx="1.5" fill="#FFD166" opacity="1"/><rect x="828" y="1072" width="14" height="14" rx="1.5" fill="#F3F0E6" opacity="0.14"/><rect x="828" y="1090" width="14" height="14" rx="1.5" fill="#F3F0E6" opacity="0.7"/><rect x="846" y="982" width="14" height="14" rx="1.5" fill="#F3F0E6" opacity="0.7"/><rect class="cell" style="animation-delay:2.0s" x="846" y="1000" width="14" height="14" rx="1.5" fill="#FFD166" opacity="1"/><rect x="846" y="1018" width="14" height="14" rx="1.5" fill="#F3F0E6" opacity="0.14"/><rect class="cell" style="animation-delay:2.8s" x="846" y="1036" width="14" height="14" rx="1.5" fill="#FFD166" opacity="1"/><rect class="cell" style="animation-delay:3.2s" x="846" y="1054" width="14" height="14" rx="1.5" fill="#FFD166" opacity="1"/><rect x="846" y="1072" width="14" height="14" rx="1.5" fill="#F3F0E6" opacity="0.14"/><rect x="846" y="1090" width="14" height="14" rx="1.5" fill="#F3F0E6" opacity="0.7"/><rect x="864" y="982" width="14" height="14" rx="1.5" fill="#F3F0E6" opacity="0.7"/><rect x="864" y="1000" width="14" height="14" rx="1.5" fill="#F3F0E6" opacity="0.14"/><rect x="864" y="1018" width="14" height="14" rx="1.5" fill="#F3F0E6" opacity="0.7"/><rect x="864" y="1036" width="14" height="14" rx="1.5" fill="#F3F0E6" opacity="0.14"/><rect x="864" y="1054" width="14" height="14" rx="1.5" fill="#F3F0E6" opacity="0.7"/><rect x="864" y="1072" width="14" height="14" rx="1.5" fill="#F3F0E6" opacity="0.14"/><rect x="864" y="1090" width="14" height="14" rx="1.5" fill="#F3F0E6" opacity="0.14"/><rect x="882" y="982" width="14" height="14" rx="1.5" fill="#F3F0E6" opacity="0.7"/><rect x="882" y="1000" width="14" height="14" rx="1.5" fill="#F3F0E6" opacity="0.4"/><rect x="882" y="1018" width="14" height="14" rx="1.5" fill="#F3F0E6" opacity="0.14"/><rect x="882" y="1036" width="14" height="14" rx="1.5" fill="#F3F0E6" opacity="0.4"/><rect x="882" y="1054" width="14" height="14" rx="1.5" fill="#F3F0E6" opacity="0.14"/><rect x="882" y="1072" width="14" height="14" rx="1.5" fill="#F3F0E6" opacity="0.7"/><rect x="882" y="1090" width="14" height="14" rx="1.5" fill="#F3F0E6" opacity="0.4"/><rect x="900" y="982" width="14" height="14" rx="1.5" fill="#F3F0E6" opacity="0.14"/><rect x="900" y="1000" width="14" height="14" rx="1.5" fill="#F3F0E6" opacity="0.14"/><rect x="900" y="1018" width="14" height="14" rx="1.5" fill="#F3F0E6" opacity="0.7"/><rect x="900" y="1036" width="14" height="14" rx="1.5" fill="#F3F0E6" opacity="0.14"/><rect x="900" y="1054" width="14" height="14" rx="1.5" fill="#F3F0E6" opacity="0.14"/><rect x="900" y="1072" width="14" height="14" rx="1.5" fill="#F3F0E6" opacity="0.14"/><rect x="900" y="1090" width="14" height="14" rx="1.5" fill="#F3F0E6" opacity="0.7"/><rect class="cell" style="animation-delay:4.0s" x="918" y="982" width="14" height="14" rx="1.5" fill="#FFD166" opacity="1"/><rect x="918" y="1000" width="14" height="14" rx="1.5" fill="#F3F0E6" opacity="0.14"/><rect x="918" y="1018" width="14" height="14" rx="1.5" fill="#F3F0E6" opacity="0.7"/><rect x="918" y="1036" width="14" height="14" rx="1.5" fill="#F3F0E6" opacity="0.14"/><rect x="918" y="1054" width="14" height="14" rx="1.5" fill="#F3F0E6" opacity="0.4"/><rect x="918" y="1072" width="14" height="14" rx="1.5" fill="#F3F0E6" opacity="0.4"/><rect x="918" y="1090" width="14" height="14" rx="1.5" fill="#F3F0E6" opacity="0.4"/><rect x="936" y="982" width="14" height="14" rx="1.5" fill="#F3F0E6" opacity="0.7"/><rect x="936" y="1000" width="14" height="14" rx="1.5" fill="#F3F0E6" opacity="0.4"/><rect x="936" y="1018" width="14" height="14" rx="1.5" fill="#F3F0E6" opacity="0.14"/><rect x="936" y="1036" width="14" height="14" rx="1.5" fill="#F3F0E6" opacity="0.14"/><rect x="936" y="1054" width="14" height="14" rx="1.5" fill="#F3F0E6" opacity="0.14"/><rect x="936" y="1072" width="14" height="14" rx="1.5" fill="#F3F0E6" opacity="0.7"/><rect x="936" y="1090" width="14" height="14" rx="1.5" fill="#F3F0E6" opacity="0.7"/><rect x="954" y="982" width="14" height="14" rx="1.5" fill="#F3F0E6" opacity="0.7"/><rect x="954" y="1000" width="14" height="14" rx="1.5" fill="#F3F0E6" opacity="0.7"/><rect x="954" y="1018" width="14" height="14" rx="1.5" fill="#F3F0E6" opacity="0.7"/><rect x="954" y="1036" width="14" height="14" rx="1.5" fill="#F3F0E6" opacity="0.7"/><rect x="954" y="1054" width="14" height="14" rx="1.5" fill="#F3F0E6" opacity="0.7"/><rect x="954" y="1072" width="14" height="14" rx="1.5" fill="#F3F0E6" opacity="0.7"/><rect x="954" y="1090" width="14" height="14" rx="1.5" fill="#F3F0E6" opacity="0.14"/><rect x="972" y="982" width="14" height="14" rx="1.5" fill="#F3F0E6" opacity="0.4"/><rect x="972" y="1000" width="14" height="14" rx="1.5" fill="#F3F0E6" opacity="0.14"/><rect x="972" y="1018" width="14" height="14" rx="1.5" fill="#F3F0E6" opacity="0.14"/><rect x="972" y="1036" width="14" height="14" rx="1.5" fill="#F3F0E6" opacity="0.14"/><rect x="972" y="1054" width="14" height="14" rx="1.5" fill="#F3F0E6" opacity="0.14"/><rect x="972" y="1072" width="14" height="14" rx="1.5" fill="#F3F0E6" opacity="0.4"/><rect x="972" y="1090" width="14" height="14" rx="1.5" fill="#F3F0E6" opacity="0.4"/><rect x="990" y="982" width="14" height="14" rx="1.5" fill="#F3F0E6" opacity="0.7"/><rect x="990" y="1000" width="14" height="14" rx="1.5" fill="#F3F0E6" opacity="0.7"/><rect x="990" y="1018" width="14" height="14" rx="1.5" fill="#F3F0E6" opacity="0.14"/><rect x="990" y="1036" width="14" height="14" rx="1.5" fill="#F3F0E6" opacity="0.7"/><rect x="990" y="1054" width="14" height="14" rx="1.5" fill="#F3F0E6" opacity="0.4"/><rect x="990" y="1072" width="14" height="14" rx="1.5" fill="#F3F0E6" opacity="0.14"/><rect x="990" y="1090" width="14" height="14" rx="1.5" fill="#F3F0E6" opacity="0.7"/>
  <text x="72" y="1148" font-family="ui-monospace,'SF Mono','JetBrains Mono','Fira Code','Cascadia Mono',Menlo,Consolas,monospace" font-size="23" font-weight="600" fill="#F3F0E6" opacity="0.75">TypeScript · 48% of lines written</text>

  <text x="72" y="1245" font-family="ui-monospace,'SF Mono','JetBrains Mono','Fira Code','Cascadia Mono',Menlo,Consolas,monospace" font-size="23" font-weight="700" fill="#F3F0E6" opacity="0.85">demo-repo  ·  2024 – 2026  ·  13-day streak</text>
  <text x="72" y="1295" font-family="ui-monospace,'SF Mono','JetBrains Mono','Fira Code','Cascadia Mono',Menlo,Consolas,monospace" font-size="23" font-weight="800" fill="#FFD166">$ npx git-recap</text>
</svg>
